# xmcd
#
# Track frame offsets: 
#        150
#        13712
#        27360
#        41405
#        54307
#        66845
#        78335
#        89250
#        102630
#        113742
#        126177
#        137972
#        150117
#        164535
#        175480
#        187855
#        201122
#        212190
#        225285
#        236652
#        250485
#        263472
#        276845
#
# Disc length: 3871 seconds
#
# Revision: 8
# Processed by: cddbd v1.5.2PL0 Copyright (c) Steve Scherf et al.
# Submitted via: ExactAudioCopyFreeDBPlugin 1.0
#
DISCID=370f1d17
DTITLE=Hank Williams - The Complete Hank Williams [CD 03)
DYEAR=1998
DGENRE=Country
TTITLE0=Hank Williams (Luke the Drifter) - Too Many Parties and Too Ma
TTITLE0=ny Pals
TTITLE1=Hank Williams (Luke the Drifter) - Beyond the Sunset
TTITLE2=Hank Williams (Luke the Drifter) - The Funeral
TTITLE3=Hank Williams (Luke the Drifter) - Everything's Okay
TTITLE4=They'll Never Take Her Love from Me
TTITLE5=Nobody's Lonesome for Me
TTITLE6=Moanin' the Blues
TTITLE7=Hank Williams (Luke the Drifter) - Help Me Understand
TTITLE8=Hank Williams (Luke the Drifter) - No, No Joe
TTITLE9=Cold, Cold Heart
TTITLE10=Dear John
TTITLE11=Hank Williams (Luke the Drifter) - Just Waitin
TTITLE12=Hank Williams (Luke the Drifter) - Men with Broken Hearts
TTITLE13=I Can't Help It (If I'm Still in Love with You)
TTITLE14=Howlin' at the Moon
TTITLE15=Hey, Good Lookin
TTITLE16=My Heart Would Know
TTITLE17=Hank Williams w- Audrey Williams - The Pale Horse and His Rid
TTITLE17=er
TTITLE18=Hank Williams w- Audrey Williams - A Home in Heaven
TTITLE19=Ramblin' Man
TTITLE20=Hank Williams (Luke the Drifter) - Pictures from Life's Other
TTITLE20=Side
TTITLE21=Hank Williams (Luke the Drifter) - I've Been Down That Road B
TTITLE21=efore
TTITLE22=I Dreamed About Mama Last Night
EXTD=YEAR: 1998 ID3G:   2
EXTT0=
EXTT1=
EXTT2=
EXTT3=
EXTT4=
EXTT5=
EXTT6=
EXTT7=
EXTT8=
EXTT9=
EXTT10=
EXTT11=
EXTT12=
EXTT13=
EXTT14=
EXTT15=
EXTT16=
EXTT17=
EXTT18=
EXTT19=
EXTT20=
EXTT21=
EXTT22=
PLAYORDER=
